<svg width="89" height="57" viewBox="0 0 89 57" fill="none" xmlns="http://www.w3.org/2000/svg">
<path d="M1.12 12V0.48H4.616C4.73867 0.48 4.94667 0.482666 5.24 0.488C5.53867 0.493333 5.824 0.514666 6.096 0.551999C6.97067 0.674666 7.70133 0.999999 8.288 1.528C8.87467 2.056 9.31467 2.728 9.608 3.544C9.90133 4.36 10.048 5.25867 10.048 6.24C10.048 7.22133 9.90133 8.12 9.608 8.936C9.31467 9.752 8.87467 10.424 8.288 10.952C7.70133 11.48 6.97067 11.8053 6.096 11.928C5.82933 11.96 5.544 11.9813 5.24 11.992C4.936 11.9973 4.728 12 4.616 12H1.12ZM2.336 10.872H4.616C4.83467 10.872 5.06933 10.8667 5.32 10.856C5.576 10.84 5.79467 10.8133 5.976 10.776C6.648 10.6587 7.18933 10.3867 7.6 9.96C8.016 9.53333 8.32 9 8.512 8.36C8.704 7.71467 8.8 7.008 8.8 6.24C8.8 5.46667 8.704 4.75733 8.512 4.112C8.32 3.46667 8.016 2.93333 7.6 2.512C7.184 2.09067 6.64267 1.82133 5.976 1.704C5.79467 1.66667 5.57333 1.64267 5.312 1.632C5.056 1.616 4.824 1.608 4.616 1.608H2.336V10.872ZM12.03 1.72V0.4H13.206V1.72H12.03ZM12.03 12V3.36H13.206V12H12.03ZM19.1884 12.24C18.319 12.24 17.583 12.0453 16.9804 11.656C16.3777 11.2667 15.919 10.7307 15.6044 10.048C15.295 9.36 15.135 8.57067 15.1244 7.68C15.135 6.77333 15.3004 5.97867 15.6204 5.296C15.9404 4.608 16.4017 4.07467 17.0044 3.696C17.607 3.312 18.3377 3.12 19.1964 3.12C20.071 3.12 20.831 3.33333 21.4764 3.76C22.127 4.18667 22.5724 4.77067 22.8124 5.512L21.6604 5.88C21.4577 5.36267 21.135 4.96267 20.6924 4.68C20.255 4.392 19.7537 4.248 19.1884 4.248C18.5537 4.248 18.0284 4.39467 17.6124 4.688C17.1964 4.976 16.887 5.37867 16.6844 5.896C16.4817 6.41333 16.3777 7.008 16.3724 7.68C16.383 8.71467 16.623 9.54667 17.0924 10.176C17.5617 10.8 18.2604 11.112 19.1884 11.112C19.775 11.112 20.2737 10.9787 20.6844 10.712C21.1004 10.44 21.415 10.0453 21.6284 9.528L22.8124 9.88C22.4924 10.648 22.023 11.2347 21.4044 11.64C20.7857 12.04 20.047 12.24 19.1884 12.24ZM29.1678 12C28.6824 12.1013 28.2024 12.1413 27.7278 12.12C27.2584 12.0987 26.8371 11.9973 26.4638 11.816C26.0958 11.6347 25.8158 11.352 25.6238 10.968C25.4691 10.648 25.3838 10.3253 25.3678 10C25.3571 9.66933 25.3518 9.29333 25.3518 8.872V0.959999H26.5198V8.824C26.5198 9.18667 26.5224 9.49067 26.5278 9.736C26.5384 9.976 26.5944 10.1893 26.6958 10.376C26.8878 10.7333 27.1918 10.9467 27.6078 11.016C28.0291 11.0853 28.5491 11.0693 29.1678 10.968V12ZM23.5038 4.368V3.36H29.1678V4.368H23.5038ZM31.03 1.72V0.4H32.206V1.72H31.03ZM31.03 12V3.36H32.206V12H31.03ZM38.2124 12.24C37.3537 12.24 36.6204 12.0453 36.0124 11.656C35.4044 11.2667 34.9377 10.728 34.6124 10.04C34.287 9.352 34.1244 8.56267 34.1244 7.672C34.1244 6.76533 34.2897 5.97067 34.6204 5.288C34.951 4.60533 35.4204 4.07467 36.0284 3.696C36.6417 3.312 37.3697 3.12 38.2124 3.12C39.0764 3.12 39.8124 3.31467 40.4204 3.704C41.0337 4.088 41.5004 4.624 41.8204 5.312C42.1457 5.99467 42.3084 6.78133 42.3084 7.672C42.3084 8.57867 42.1457 9.376 41.8204 10.064C41.495 10.7467 41.0257 11.28 40.4124 11.664C39.799 12.048 39.0657 12.24 38.2124 12.24ZM38.2124 11.112C39.1724 11.112 39.887 10.7947 40.3564 10.16C40.8257 9.52 41.0604 8.69067 41.0604 7.672C41.0604 6.62667 40.823 5.79467 40.3484 5.176C39.879 4.55733 39.167 4.248 38.2124 4.248C37.567 4.248 37.0337 4.39467 36.6124 4.688C36.1964 4.976 35.8844 5.37867 35.6764 5.896C35.4737 6.408 35.3724 7 35.3724 7.672C35.3724 8.712 35.6124 9.54667 36.0924 10.176C36.5724 10.8 37.279 11.112 38.2124 11.112ZM50.3131 12V7.592C50.3131 7.112 50.2678 6.672 50.1771 6.272C50.0865 5.86667 49.9398 5.51467 49.7371 5.216C49.5398 4.912 49.2811 4.67733 48.9611 4.512C48.6465 4.34667 48.2625 4.264 47.8091 4.264C47.3931 4.264 47.0251 4.336 46.7051 4.48C46.3905 4.624 46.1238 4.832 45.9051 5.104C45.6918 5.37067 45.5291 5.696 45.4171 6.08C45.3051 6.464 45.2491 6.90133 45.2491 7.392L44.4171 7.208C44.4171 6.32267 44.5718 5.57867 44.8811 4.976C45.1905 4.37333 45.6171 3.91733 46.1611 3.608C46.7051 3.29867 47.3291 3.144 48.0331 3.144C48.5505 3.144 49.0011 3.224 49.3851 3.384C49.7745 3.544 50.1025 3.76 50.3691 4.032C50.6411 4.304 50.8598 4.616 51.0251 4.968C51.1905 5.31467 51.3105 5.68533 51.3851 6.08C51.4598 6.46933 51.4971 6.85867 51.4971 7.248V12H50.3131ZM44.0651 12V3.36H45.1291V5.488H45.2491V12H44.0651ZM59.8131 12V7.592C59.8131 7.112 59.7678 6.672 59.6771 6.272C59.5865 5.86667 59.4398 5.51467 59.2371 5.216C59.0398 4.912 58.7811 4.67733 58.4611 4.512C58.1465 4.34667 57.7625 4.264 57.3091 4.264C56.8931 4.264 56.5251 4.336 56.2051 4.48C55.8905 4.624 55.6238 4.832 55.4051 5.104C55.1918 5.37067 55.0291 5.696 54.9171 6.08C54.8051 6.464 54.7491 6.90133 54.7491 7.392L53.9171 7.208C53.9171 6.32267 54.0718 5.57867 54.3811 4.976C54.6905 4.37333 55.1171 3.91733 55.6611 3.608C56.2051 3.29867 56.8291 3.144 57.5331 3.144C58.0505 3.144 58.5011 3.224 58.8851 3.384C59.2745 3.544 59.6025 3.76 59.8691 4.032C60.1411 4.304 60.3598 4.616 60.5251 4.968C60.6905 5.31467 60.8105 5.68533 60.8851 6.08C60.9598 6.46933 60.9971 6.85867 60.9971 7.248V12H59.8131ZM53.5651 12V3.36H54.6291V5.488H54.7491V12H53.5651ZM65.5451 12.24C64.8945 12.24 64.3478 12.1227 63.9051 11.888C63.4678 11.6533 63.1398 11.3413 62.9211 10.952C62.7025 10.5627 62.5931 10.1387 62.5931 9.68C62.5931 9.21067 62.6865 8.81067 62.8731 8.48C63.0651 8.144 63.3238 7.86933 63.6491 7.656C63.9798 7.44267 64.3611 7.28 64.7931 7.168C65.2305 7.06133 65.7131 6.968 66.2411 6.888C66.7745 6.80267 67.2945 6.73067 67.8011 6.672C68.3131 6.608 68.7611 6.54667 69.1451 6.488L68.7291 6.744C68.7451 5.89067 68.5798 5.25867 68.2331 4.848C67.8865 4.43733 67.2838 4.232 66.4251 4.232C65.8331 4.232 65.3318 4.36533 64.9211 4.632C64.5158 4.89867 64.2305 5.32 64.0651 5.896L62.9211 5.56C63.1185 4.78667 63.5158 4.18667 64.1131 3.76C64.7105 3.33333 65.4865 3.12 66.4411 3.12C67.2305 3.12 67.8998 3.26933 68.4491 3.568C69.0038 3.86133 69.3958 4.288 69.6251 4.848C69.7318 5.09867 69.8011 5.37867 69.8331 5.688C69.8651 5.99733 69.8811 6.312 69.8811 6.632V12H68.8331V9.832L69.1371 9.96C68.8438 10.7013 68.3878 11.2667 67.7691 11.656C67.1505 12.0453 66.4091 12.24 65.5451 12.24ZM65.6811 11.224C66.2305 11.224 66.7105 11.1253 67.1211 10.928C67.5318 10.7307 67.8625 10.4613 68.1131 10.12C68.3638 9.77333 68.5265 9.384 68.6011 8.952C68.6651 8.67467 68.6998 8.37067 68.7051 8.04C68.7105 7.704 68.7131 7.45333 68.7131 7.288L69.1611 7.52C68.7611 7.57333 68.3265 7.62667 67.8571 7.68C67.3931 7.73333 66.9345 7.79467 66.4811 7.864C66.0331 7.93333 65.6278 8.016 65.2651 8.112C65.0198 8.18133 64.7825 8.28 64.5531 8.408C64.3238 8.53067 64.1345 8.696 63.9851 8.904C63.8411 9.112 63.7691 9.37067 63.7691 9.68C63.7691 9.93067 63.8305 10.1733 63.9531 10.408C64.0811 10.6427 64.2838 10.8373 64.5611 10.992C64.8438 11.1467 65.2171 11.224 65.6811 11.224ZM72.1238 1.72V0.4H73.2998V1.72H72.1238ZM72.1238 12V3.36H73.2998V12H72.1238ZM75.6981 12V3.36H76.7541V5.44L76.5461 5.168C76.6421 4.912 76.7675 4.67733 76.9221 4.464C77.0768 4.24533 77.2448 4.06667 77.4261 3.928C77.6501 3.73067 77.9115 3.58133 78.2101 3.48C78.5088 3.37333 78.8101 3.312 79.1141 3.296C79.4181 3.27467 79.6955 3.296 79.9461 3.36V4.464C79.6315 4.384 79.2875 4.36533 78.9141 4.408C78.5408 4.45067 78.1968 4.6 77.8821 4.856C77.5941 5.08 77.3781 5.34933 77.2341 5.664C77.0901 5.97333 76.9941 6.304 76.9461 6.656C76.8981 7.00267 76.8741 7.34667 76.8741 7.688V12H75.6981ZM84.9635 12.24C84.1208 12.24 83.3902 12.0533 82.7715 11.68C82.1582 11.3067 81.6808 10.7813 81.3395 10.104C80.9982 9.42667 80.8275 8.632 80.8275 7.72C80.8275 6.776 80.9955 5.96 81.3315 5.272C81.6675 4.584 82.1395 4.05333 82.7475 3.68C83.3608 3.30667 84.0835 3.12 84.9155 3.12C85.7688 3.12 86.4968 3.31733 87.0995 3.712C87.7022 4.10133 88.1582 4.66133 88.4675 5.392C88.7768 6.12267 88.9182 6.99467 88.8915 8.008H87.6915V7.592C87.6702 6.472 87.4275 5.62667 86.9635 5.056C86.5048 4.48533 85.8328 4.2 84.9475 4.2C84.0195 4.2 83.3075 4.50133 82.8115 5.104C82.3208 5.70667 82.0755 6.56533 82.0755 7.68C82.0755 8.768 82.3208 9.61333 82.8115 10.216C83.3075 10.8133 84.0088 11.112 84.9155 11.112C85.5342 11.112 86.0728 10.9707 86.5315 10.688C86.9955 10.4 87.3608 9.98667 87.6275 9.448L88.7235 9.872C88.3822 10.624 87.8782 11.208 87.2115 11.624C86.5502 12.0347 85.8008 12.24 84.9635 12.24ZM81.6595 8.008V7.024H88.2595V8.008H81.6595ZM10.168 34.232L7.096 31.176L7.896 30.376L10.952 33.432L10.168 34.232ZM5.784 34.24C4.63733 34.24 3.66933 33.9867 2.88 33.48C2.09067 32.968 1.49333 32.2613 1.088 31.36C0.682667 30.4587 0.48 29.4187 0.48 28.24C0.48 27.0613 0.682667 26.0213 1.088 25.12C1.49333 24.2187 2.09067 23.5147 2.88 23.008C3.66933 22.496 4.63733 22.24 5.784 22.24C6.936 22.24 7.904 22.496 8.688 23.008C9.47733 23.5147 10.0747 24.2187 10.48 25.12C10.8907 26.0213 11.096 27.0613 11.096 28.24C11.096 29.4187 10.8907 30.4587 10.48 31.36C10.0747 32.2613 9.47733 32.968 8.688 33.48C7.904 33.9867 6.936 34.24 5.784 34.24ZM5.784 33.112C6.68533 33.112 7.43733 32.9067 8.04 32.496C8.64267 32.0853 9.09333 31.5147 9.392 30.784C9.696 30.048 9.848 29.2 9.848 28.24C9.848 27.28 9.696 26.4347 9.392 25.704C9.09333 24.9733 8.64267 24.4027 8.04 23.992C7.43733 23.5813 6.68533 23.3733 5.784 23.368C4.88267 23.368 4.13333 23.5733 3.536 23.984C2.93867 24.3947 2.488 24.968 2.184 25.704C1.88533 26.4347 1.73333 27.28 1.728 28.24C1.72267 29.2 1.86933 30.0453 2.168 30.776C2.472 31.5013 2.92533 32.072 3.528 32.488C4.13067 32.8987 4.88267 33.1067 5.784 33.112ZM16.0021 34.216C15.4848 34.216 15.0315 34.136 14.6421 33.976C14.2581 33.816 13.9301 33.6 13.6581 33.328C13.3915 33.056 13.1755 32.7467 13.0101 32.4C12.8448 32.048 12.7248 31.6773 12.6501 31.288C12.5755 30.8933 12.5381 30.5013 12.5381 30.112V25.36H13.7221V29.768C13.7221 30.2427 13.7675 30.6827 13.8581 31.088C13.9488 31.4933 14.0928 31.848 14.2901 32.152C14.4928 32.4507 14.7515 32.6827 15.0661 32.848C15.3861 33.0133 15.7728 33.096 16.2261 33.096C16.6421 33.096 17.0075 33.024 17.3221 32.88C17.6421 32.736 17.9088 32.5307 18.1221 32.264C18.3408 31.992 18.5061 31.664 18.6181 31.28C18.7301 30.8907 18.7861 30.4533 18.7861 29.968L19.6181 30.152C19.6181 31.0373 19.4635 31.7813 19.1541 32.384C18.8448 32.9867 18.4181 33.4427 17.8741 33.752C17.3301 34.0613 16.7061 34.216 16.0021 34.216ZM18.9061 34V31.872H18.7861V25.36H19.9621V34H18.9061ZM25.8541 34.24C25.0115 34.24 24.2808 34.0533 23.6621 33.68C23.0488 33.3067 22.5715 32.7813 22.2301 32.104C21.8888 31.4267 21.7181 30.632 21.7181 29.72C21.7181 28.776 21.8861 27.96 22.2221 27.272C22.5581 26.584 23.0301 26.0533 23.6381 25.68C24.2515 25.3067 24.9741 25.12 25.8061 25.12C26.6595 25.12 27.3875 25.3173 27.9901 25.712C28.5928 26.1013 29.0488 26.6613 29.3581 27.392C29.6675 28.1227 29.8088 28.9947 29.7821 30.008H28.5821V29.592C28.5608 28.472 28.3181 27.6267 27.8541 27.056C27.3955 26.4853 26.7235 26.2 25.8381 26.2C24.9101 26.2 24.1981 26.5013 23.7021 27.104C23.2115 27.7067 22.9661 28.5653 22.9661 29.68C22.9661 30.768 23.2115 31.6133 23.7021 32.216C24.1981 32.8133 24.8995 33.112 25.8061 33.112C26.4248 33.112 26.9635 32.9707 27.4221 32.688C27.8861 32.4 28.2515 31.9867 28.5181 31.448L29.6141 31.872C29.2728 32.624 28.7688 33.208 28.1021 33.624C27.4408 34.0347 26.6915 34.24 25.8541 34.24ZM22.5501 30.008V29.024H29.1501V30.008H22.5501ZM35.4375 34.24C34.6428 34.24 33.9708 34.04 33.4215 33.64C32.8722 33.2347 32.4562 32.688 32.1735 32C31.8908 31.3067 31.7495 30.5307 31.7495 29.672C31.7495 28.7973 31.8908 28.0187 32.1735 27.336C32.4615 26.648 32.8828 26.1067 33.4375 25.712C33.9922 25.3173 34.6748 25.12 35.4855 25.12C36.2748 25.12 36.9522 25.32 37.5175 25.72C38.0828 26.12 38.5148 26.664 38.8135 27.352C39.1175 28.04 39.2695 28.8133 39.2695 29.672C39.2695 30.536 39.1175 31.312 38.8135 32C38.5095 32.688 38.0722 33.2347 37.5015 33.64C36.9308 34.04 36.2428 34.24 35.4375 34.24ZM31.5495 34V22.48H32.7335V27.496H32.6055V34H31.5495ZM35.3175 33.144C35.9202 33.144 36.4215 32.992 36.8215 32.688C37.2215 32.384 37.5202 31.9707 37.7175 31.448C37.9202 30.92 38.0215 30.328 38.0215 29.672C38.0215 29.0213 37.9228 28.4347 37.7255 27.912C37.5282 27.3893 37.2268 26.976 36.8215 26.672C36.4215 26.368 35.9122 26.216 35.2935 26.216C34.6908 26.216 34.1895 26.3627 33.7895 26.656C33.3948 26.9493 33.0988 27.3573 32.9015 27.88C32.7042 28.3973 32.6055 28.9947 32.6055 29.672C32.6055 30.3387 32.7042 30.936 32.9015 31.464C33.0988 31.9867 33.3975 32.3973 33.7975 32.696C34.1975 32.9947 34.7042 33.144 35.3175 33.144ZM44.6823 34.24C43.8396 34.24 43.1089 34.0533 42.4903 33.68C41.8769 33.3067 41.3996 32.7813 41.0583 32.104C40.7169 31.4267 40.5463 30.632 40.5463 29.72C40.5463 28.776 40.7143 27.96 41.0503 27.272C41.3863 26.584 41.8583 26.0533 42.4663 25.68C43.0796 25.3067 43.8023 25.12 44.6343 25.12C45.4876 25.12 46.2156 25.3173 46.8183 25.712C47.4209 26.1013 47.8769 26.6613 48.1863 27.392C48.4956 28.1227 48.6369 28.9947 48.6103 30.008H47.4103V29.592C47.3889 28.472 47.1463 27.6267 46.6823 27.056C46.2236 26.4853 45.5516 26.2 44.6663 26.2C43.7383 26.2 43.0263 26.5013 42.5303 27.104C42.0396 27.7067 41.7943 28.5653 41.7943 29.68C41.7943 30.768 42.0396 31.6133 42.5303 32.216C43.0263 32.8133 43.7276 33.112 44.6343 33.112C45.2529 33.112 45.7916 32.9707 46.2503 32.688C46.7143 32.4 47.0796 31.9867 47.3463 31.448L48.4423 31.872C48.1009 32.624 47.5969 33.208 46.9303 33.624C46.2689 34.0347 45.5196 34.24 44.6823 34.24ZM41.3783 30.008V29.024H47.9783V30.008H41.3783ZM53.9696 34.24C53.1003 34.24 52.3643 34.0453 51.7616 33.656C51.159 33.2667 50.7003 32.7307 50.3856 32.048C50.0763 31.36 49.9163 30.5707 49.9056 29.68C49.9163 28.7733 50.0816 27.9787 50.4016 27.296C50.7216 26.608 51.183 26.0747 51.7856 25.696C52.3883 25.312 53.119 25.12 53.9776 25.12C54.8523 25.12 55.6123 25.3333 56.2576 25.76C56.9083 26.1867 57.3536 26.7707 57.5936 27.512L56.4416 27.88C56.239 27.3627 55.9163 26.9627 55.4736 26.68C55.0363 26.392 54.535 26.248 53.9696 26.248C53.335 26.248 52.8096 26.3947 52.3936 26.688C51.9776 26.976 51.6683 27.3787 51.4656 27.896C51.263 28.4133 51.159 29.008 51.1536 29.68C51.1643 30.7147 51.4043 31.5467 51.8736 32.176C52.343 32.8 53.0416 33.112 53.9696 33.112C54.5563 33.112 55.055 32.9787 55.4656 32.712C55.8816 32.44 56.1963 32.0453 56.4096 31.528L57.5936 31.88C57.2736 32.648 56.8043 33.2347 56.1856 33.64C55.567 34.04 54.8283 34.24 53.9696 34.24ZM62.6186 34.24C61.76 34.24 61.0266 34.0453 60.4186 33.656C59.8106 33.2667 59.344 32.728 59.0186 32.04C58.6933 31.352 58.5306 30.5627 58.5306 29.672C58.5306 28.7653 58.696 27.9707 59.0266 27.288C59.3573 26.6053 59.8266 26.0747 60.4346 25.696C61.048 25.312 61.776 25.12 62.6186 25.12C63.4826 25.12 64.2186 25.3147 64.8266 25.704C65.44 26.088 65.9066 26.624 66.2266 27.312C66.552 27.9947 66.7146 28.7813 66.7146 29.672C66.7146 30.5787 66.552 31.376 66.2266 32.064C65.9013 32.7467 65.432 33.28 64.8186 33.664C64.2053 34.048 63.472 34.24 62.6186 34.24ZM62.6186 33.112C63.5786 33.112 64.2933 32.7947 64.7626 32.16C65.232 31.52 65.4666 30.6907 65.4666 29.672C65.4666 28.6267 65.2293 27.7947 64.7546 27.176C64.2853 26.5573 63.5733 26.248 62.6186 26.248C61.9733 26.248 61.44 26.3947 61.0186 26.688C60.6026 26.976 60.2906 27.3787 60.0826 27.896C59.88 28.408 59.7786 29 59.7786 29.672C59.7786 30.712 60.0186 31.5467 60.4986 32.176C60.9786 32.8 61.6853 33.112 62.6186 33.112ZM68.6394 23.72V22.4H69.8154V23.72H68.6394ZM68.6394 34V25.36H69.8154V34H68.6394ZM75.4378 34.232C74.4244 34.232 73.5898 34.0133 72.9338 33.576C72.2831 33.1387 71.8831 32.5307 71.7338 31.752L72.9338 31.552C73.0618 32.0427 73.3524 32.4347 73.8058 32.728C74.2644 33.016 74.8298 33.16 75.5017 33.16C76.1578 33.16 76.6751 33.024 77.0538 32.752C77.4324 32.4747 77.6218 32.0987 77.6218 31.624C77.6218 31.3573 77.5604 31.1413 77.4378 30.976C77.3204 30.8053 77.0778 30.648 76.7098 30.504C76.3418 30.36 75.7924 30.1893 75.0618 29.992C74.2778 29.7787 73.6644 29.5653 73.2218 29.352C72.7791 29.1387 72.4644 28.8933 72.2778 28.616C72.0911 28.3333 71.9978 27.9893 71.9978 27.584C71.9978 27.0933 72.1364 26.664 72.4138 26.296C72.6911 25.9227 73.0751 25.6347 73.5658 25.432C74.0564 25.224 74.6271 25.12 75.2778 25.12C75.9284 25.12 76.5098 25.2267 77.0218 25.44C77.5391 25.648 77.9551 25.9413 78.2698 26.32C78.5844 26.6987 78.7711 27.1387 78.8298 27.64L77.6298 27.856C77.5498 27.3493 77.2964 26.9493 76.8698 26.656C76.4484 26.3573 75.9124 26.2027 75.2618 26.192C74.6484 26.176 74.1498 26.2933 73.7658 26.544C73.3818 26.7893 73.1898 27.1173 73.1898 27.528C73.1898 27.7573 73.2591 27.9547 73.3978 28.12C73.5364 28.28 73.7871 28.432 74.1498 28.576C74.5178 28.72 75.0404 28.8773 75.7178 29.048C76.5124 29.2507 77.1364 29.464 77.5898 29.688C78.0431 29.912 78.3658 30.176 78.5578 30.48C78.7498 30.784 78.8458 31.16 78.8458 31.608C78.8458 32.424 78.5418 33.0667 77.9338 33.536C77.3311 34 76.4991 34.232 75.4378 34.232ZM3.592 56.24C2.94133 56.24 2.39467 56.1227 1.952 55.888C1.51467 55.6533 1.18667 55.3413 0.968 54.952C0.749333 54.5627 0.64 54.1387 0.64 53.68C0.64 53.2107 0.733333 52.8107 0.92 52.48C1.112 52.144 1.37067 51.8693 1.696 51.656C2.02667 51.4427 2.408 51.28 2.84 51.168C3.27733 51.0613 3.76 50.968 4.288 50.888C4.82133 50.8027 5.34133 50.7307 5.848 50.672C6.36 50.608 6.808 50.5467 7.192 50.488L6.776 50.744C6.792 49.8907 6.62667 49.2587 6.28 48.848C5.93333 48.4373 5.33067 48.232 4.472 48.232C3.88 48.232 3.37867 48.3653 2.968 48.632C2.56267 48.8987 2.27733 49.32 2.112 49.896L0.968 49.56C1.16533 48.7867 1.56267 48.1867 2.16 47.76C2.75733 47.3333 3.53333 47.12 4.488 47.12C5.27733 47.12 5.94667 47.2693 6.496 47.568C7.05067 47.8613 7.44267 48.288 7.672 48.848C7.77867 49.0987 7.848 49.3787 7.88 49.688C7.912 49.9973 7.928 50.312 7.928 50.632V56H6.88V53.832L7.184 53.96C6.89067 54.7013 6.43467 55.2667 5.816 55.656C5.19733 56.0453 4.456 56.24 3.592 56.24ZM3.728 55.224C4.27733 55.224 4.75733 55.1253 5.168 54.928C5.57867 54.7307 5.90933 54.4613 6.16 54.12C6.41067 53.7733 6.57333 53.384 6.648 52.952C6.712 52.6747 6.74667 52.3707 6.752 52.04C6.75733 51.704 6.76 51.4533 6.76 51.288L7.208 51.52C6.808 51.5733 6.37333 51.6267 5.904 51.68C5.44 51.7333 4.98133 51.7947 4.528 51.864C4.08 51.9333 3.67467 52.016 3.312 52.112C3.06667 52.1813 2.82933 52.28 2.6 52.408C2.37067 52.5307 2.18133 52.696 2.032 52.904C1.888 53.112 1.816 53.3707 1.816 53.68C1.816 53.9307 1.87733 54.1733 2 54.408C2.128 54.6427 2.33067 54.8373 2.608 54.992C2.89067 55.1467 3.264 55.224 3.728 55.224ZM13.6186 56.24C12.76 56.24 12.0266 56.0453 11.4186 55.656C10.8106 55.2667 10.344 54.728 10.0186 54.04C9.69329 53.352 9.53063 52.5627 9.53063 51.672C9.53063 50.7653 9.69596 49.9707 10.0266 49.288C10.3573 48.6053 10.8266 48.0747 11.4346 47.696C12.048 47.312 12.776 47.12 13.6186 47.12C14.4826 47.12 15.2186 47.3147 15.8266 47.704C16.44 48.088 16.9066 48.624 17.2266 49.312C17.552 49.9947 17.7146 50.7813 17.7146 51.672C17.7146 52.5787 17.552 53.376 17.2266 54.064C16.9013 54.7467 16.432 55.28 15.8186 55.664C15.2053 56.048 14.472 56.24 13.6186 56.24ZM13.6186 55.112C14.5786 55.112 15.2933 54.7947 15.7626 54.16C16.232 53.52 16.4666 52.6907 16.4666 51.672C16.4666 50.6267 16.2293 49.7947 15.7546 49.176C15.2853 48.5573 14.5733 48.248 13.6186 48.248C12.9733 48.248 12.44 48.3947 12.0186 48.688C11.6026 48.976 11.2906 49.3787 11.0826 49.896C10.88 50.408 10.7786 51 10.7786 51.672C10.7786 52.712 11.0186 53.5467 11.4986 54.176C11.9786 54.8 12.6853 55.112 13.6186 55.112ZM22.7834 56.216C22.266 56.216 21.8127 56.136 21.4234 55.976C21.0394 55.816 20.7114 55.6 20.4394 55.328C20.1727 55.056 19.9567 54.7467 19.7914 54.4C19.626 54.048 19.506 53.6773 19.4314 53.288C19.3567 52.8933 19.3194 52.5013 19.3194 52.112V47.36H20.5034V51.768C20.5034 52.2427 20.5487 52.6827 20.6394 53.088C20.73 53.4933 20.874 53.848 21.0714 54.152C21.274 54.4507 21.5327 54.6827 21.8474 54.848C22.1674 55.0133 22.554 55.096 23.0074 55.096C23.4234 55.096 23.7887 55.024 24.1034 54.88C24.4234 54.736 24.69 54.5307 24.9034 54.264C25.122 53.992 25.2874 53.664 25.3994 53.28C25.5114 52.8907 25.5674 52.4533 25.5674 51.968L26.3994 52.152C26.3994 53.0373 26.2447 53.7813 25.9354 54.384C25.626 54.9867 25.1994 55.4427 24.6554 55.752C24.1114 56.0613 23.4874 56.216 22.7834 56.216ZM25.6874 56V53.872H25.5674V47.36H26.7434V56H25.6874ZM32.6354 56.24C31.7927 56.24 31.062 56.0533 30.4434 55.68C29.83 55.3067 29.3527 54.7813 29.0114 54.104C28.67 53.4267 28.4994 52.632 28.4994 51.72C28.4994 50.776 28.6674 49.96 29.0034 49.272C29.3394 48.584 29.8114 48.0533 30.4194 47.68C31.0327 47.3067 31.7554 47.12 32.5874 47.12C33.4407 47.12 34.1687 47.3173 34.7714 47.712C35.374 48.1013 35.83 48.6613 36.1394 49.392C36.4487 50.1227 36.59 50.9947 36.5634 52.008H35.3634V51.592C35.342 50.472 35.0994 49.6267 34.6354 49.056C34.1767 48.4853 33.5047 48.2 32.6194 48.2C31.6914 48.2 30.9794 48.5013 30.4834 49.104C29.9927 49.7067 29.7474 50.5653 29.7474 51.68C29.7474 52.768 29.9927 53.6133 30.4834 54.216C30.9794 54.8133 31.6807 55.112 32.5874 55.112C33.206 55.112 33.7447 54.9707 34.2034 54.688C34.6674 54.4 35.0327 53.9867 35.2994 53.448L36.3954 53.872C36.054 54.624 35.55 55.208 34.8834 55.624C34.222 56.0347 33.4727 56.24 32.6354 56.24ZM29.3314 52.008V51.024H35.9314V52.008H29.3314ZM38.2503 56V54.632H39.6183V56H38.2503Z" fill="black"/>
</svg>
